<svg version="1.2" xmlns="http://www.w3.org/2000/svg" viewBox="0 0 32 32" width="64" height="64">
	<style>
		.s0 { fill: #080c0b } 
		.s1 { fill: #ffd447 } 
	</style>
	<g id="Layer 1">
		<path id="Forma 2" fill-rule="evenodd" class="s0" d="m8 0h16c4.42 0 8 3.58 8 8v16c0 4.42-3.58 8-8 8h-16c-4.42 0-8-3.58-8-8v-16c0-4.42 3.58-8 8-8z"/>
		<path id="B)" class="s1" aria-label="B)"  d="m8.6 21l1.8-11.1h3.8q1.4 0 2.2 0.7 0.7 0.7 0.7 1.9 0 2.3-2.3 2.9v0.1q0.9 0.1 1.3 0.7 0.5 0.5 0.5 1.4 0 0.7-0.3 1.4-0.2 0.6-0.7 1.1-0.5 0.4-1.2 0.7-0.7 0.2-1.6 0.2zm2.6-1.6h1.2q0.8 0 1.2-0.3 0.5-0.3 0.6-0.9l0.1-0.4q0-0.2 0-0.3 0.1-0.2 0.1-0.3 0-0.5-0.4-0.8-0.3-0.2-1-0.2h-1.3zm0.8-4.7h0.9q0.8 0 1.3-0.3 0.4-0.2 0.5-0.9l0.1-0.4q0-0.1 0-0.2 0-0.2 0-0.3 0-0.5-0.3-0.7-0.3-0.3-1-0.3h-1zm12.3 0.3q0 1.3-0.4 2.6-0.4 1.2-1 2.3-0.6 1-1.4 1.9-0.8 0.9-1.7 1.5h-2.3q0.9-0.6 1.6-1.3 0.8-0.7 1.4-1.5 0.6-0.8 1-1.7 0.4-0.8 0.5-1.7l0.3-1.5q0-0.3 0-0.5 0-0.2 0-0.5 0-0.8-0.2-1.5-0.2-0.8-0.5-1.6-0.4-0.7-0.8-1.3-0.5-0.6-0.9-1.1h2q0.5 0.5 1 1.1 0.4 0.6 0.7 1.4 0.3 0.8 0.5 1.6 0.2 0.9 0.2 1.8z"/>
	</g>
</svg>